<svg xmlns="http://www.w3.org/2000/svg" viewBox="0 0 512 512" id="interview">
  <path fill="#676e87" d="M62 512V323.5h403V512H62z"></path>
  <path fill="#595f74" d="M435 323.5h30V512h-30z"></path>
  <path fill="#595f74" d="M7.5 289h497a35.65 35.65 0 0 1-35.65 35.65H43.15A35.65 35.65 0 0 1 7.5 289Z"></path>
  <path fill="#4a4f60" d="M474.5 289a35.65 35.65 0 0 1-35.65 35.65h30A35.65 35.65 0 0 0 504.5 289h-30Z"></path>
  <path fill="#f66" d="M260.57 289a15 15 0 0 1-14.94-16.38l4.94-53.72c.05-.58.12-1.16.2-1.74 2.41-17.51 15.67-31.58 32.83-35.8l80-19.69 80 19.69c17.16 4.22 30.43 18.29 32.83 35.8.08.58.15 1.16.2 1.74l6.73 53.22A15 15 0 0 1 468.42 289Z"></path>
  <path fill="#ff4e4e" d="m483.3 272.09-6.73-53.22c-.05-.58-.12-1.16-.2-1.74-2.4-17.51-15.67-31.58-32.83-35.8l-80-19.69-15 3.7 65 16c17.16 4.22 30.43 18.29 32.83 35.8.08.58.15 1.16.2 1.74l6.73 53.22a15 15 0 0 1-14.88 16.9h30a15 15 0 0 0 14.88-16.91Z"></path>
  <path fill="#ffcd85" d="M341.13 144H386v29.15a22.06 22.06 0 0 1-22.06 22.06h-.75a22.06 22.06 0 0 1-22.06-22.06V144Z"></path>
  <path fill="#ffc166" d="M368.42 144v29.15a22.06 22.06 0 0 1-13.64 20.39 21.79 21.79 0 0 0 8.41 1.67h.81a22.06 22.06 0 0 0 22-22.03V144Z"></path>
  <path fill="#676e87" d="M392.15 63.42 315.92 81.3V27.93c0-9.87 8.54-20.43 19.07-20.43h73.11a3.12 3.12 0 0 1 3.12 3.11v34.93c0 9.87-8.54 17.88-19.07 17.88Z"></path>
  <path fill="#595f74" d="M408.1 7.5h-30a3.12 3.12 0 0 1 3.12 3.11v34.93c0 9.87-8.54 17.88-19.07 17.88l-46.23 10.84v7l76.23-17.88c10.53 0 19.07-8 19.07-17.88V10.61a3.12 3.12 0 0 0-3.12-3.11Z"></path>
  <path fill="#ffcd85" d="M325.92 63.42h75.3a10 10 0 0 1 10 10v41.85a44.15 44.15 0 0 1-44.15 44.15h-7a44.15 44.15 0 0 1-44.15-44.15V73.42a10 10 0 0 1 10-10Z"></path>
  <path fill="#ffc166" d="M401.22 63.42h-30a10 10 0 0 1 10 10v41.85a44.17 44.17 0 0 1-32.65 42.63 44.5 44.5 0 0 0 11.5 1.52h7a44.15 44.15 0 0 0 44.15-44.15V73.42a10 10 0 0 0-10-10Z"></path>
  <path fill="#ffcd85" d="M364 252.89h44.8V289H364a18 18 0 0 1-18-18 18 18 0 0 1 18-18Z"></path>
  <path fill="#ffcd85" d="M346.37 288.97h-29.79v-36.11h29.79a18 18 0 0 1 18 18 18 18 0 0 1-18 18.11Z"></path>
  <path fill="#ffc166" d="M346.36 252.89h-15a18 18 0 0 1 0 36.08h15a18 18 0 0 0 0-36.08Z"></path>
  <path fill="#66c1ff" d="M228.37 369.49H81.88c-11.62 0-21-10.78-21-24.08v-19.49c0-30.75 19.11-57.16 45.52-62.92l11.54-2.51 37.24-78.76 35.46 78.37 13.26 2.9c26.41 5.76 45.52 32.17 45.52 62.92v19.49c0 13.3-9.42 24.08-21.05 24.08Z"></path>
  <path fill="#4eb7ff" d="m203.9 263-13.31-2.9-35.46-78.37-15.33 32.42 20.79 46L173.9 263c26.41 5.76 45.52 32.17 45.52 62.92v19.49c0 13.3-9.42 24.08-21 24.08h30c11.63 0 21-10.78 21-24.08v-19.49c0-30.75-19.11-57.16-45.52-62.92Z"></path>
  <path fill="#ffcd85" d="M117.89 260.49c.62.92 14.78 21.14 39.15 19.57 20.9-1.35 32.19-17.63 33.49-19.57.1-.1.2-.23.31-.33l-.25-.06-35.46-78.37Z"></path>
  <path fill="#ffc166" d="m190.59 260.1-35.46-78.37-7.67 16.21s15.35 34 23.34 51.88a17.59 17.59 0 0 1-5.19 21.08 43.09 43.09 0 0 1-18.71 8.55 40.77 40.77 0 0 0 10.14.61c20.9-1.35 32.19-17.63 33.49-19.57.1-.1.2-.23.31-.33Z"></path>
  <path fill="#ffcd85" d="M116.27 153.69H194a10.54 10.54 0 0 1 10.54 10.54v38.07a49.39 49.39 0 0 1-49.39 49.39 49.39 49.39 0 0 1-49.39-49.39v-38.07a10.54 10.54 0 0 1 10.54-10.54Z"></path>
  <path fill="#ffc166" d="M194 153.69h-27.74a10.54 10.54 0 0 1 10.54 10.54v38.07a49.42 49.42 0 0 1-35.53 47.41 49.5 49.5 0 0 0 13.86 2 49.39 49.39 0 0 0 49.39-49.39v-38.09A10.54 10.54 0 0 0 194 153.69Z"></path>
  <path fill="#676e87" d="M105.74 174.13v-32.52c0-11.27 8.05-20.49 17.9-20.49h80.88v53c0 21.54-15.27 39-34.1 39h-30.59c-18.83.01-34.09-17.45-34.09-38.99Z"></path>
  <path fill="#595f74" d="M177.82 121.12v53c0 21.54-15.27 39-34.1 39h26.7c18.83 0 34.1-17.46 34.1-39v-53Z"></path>
  <path fill="#ffc97a" d="M37.5 512V389.89a33.17 33.17 0 0 1 33.16-33.17h168.93a33.16 33.16 0 0 1 33.16 33.17V512Z"></path>
  <path fill="#ffc166" d="M239.59 356.72h-30a33.16 33.16 0 0 1 33.16 33.17V512h30V389.89a33.16 33.16 0 0 0-33.16-33.17Z"></path>
  <path fill="#272a33" d="M504.5 281.47h-14.88a22.54 22.54 0 0 0 1.12-10.32L484 218c-.07-.65-.14-1.29-.23-1.93-2.77-20.14-18.2-37.07-38.44-42.02l-51.82-12.76v-1.67a51.69 51.69 0 0 0 25.21-44.35V73.42a17.42 17.42 0 0 0-5.38-12.59 24.55 24.55 0 0 0 5.38-15.29V10.61A10.62 10.62 0 0 0 408.1 0H335c-15.2 0-26.57 14.75-26.57 27.93v87.34a51.69 51.69 0 0 0 25.21 44.35v1.67L281.81 174c-20.24 5-35.7 21.89-38.47 42.07-.09.68-.17 1.36-.24 2.08l-4.94 53.72a21.91 21.91 0 0 0 0 3.24 61.34 61.34 0 0 0-32.61-19.47l-9.63-2.1-3.69-8.16A56.78 56.78 0 0 0 212 202.3v-81.18a7.5 7.5 0 0 0-7.5-7.5h-80.86c-14 0-25.4 12.55-25.4 28v60.68a56.74 56.74 0 0 0 18.87 42.28l-4.42 9.42-7.94 1.73C89.44 259 76.3 268.45 67.13 281.47H7.5A7.5 7.5 0 0 0 0 289a43.2 43.2 0 0 0 43.15 43.15h10.18v13.29a34.9 34.9 0 0 0 .79 7.35A40.71 40.71 0 0 0 30 389.89V504.5a7.5 7.5 0 0 0 15 0V389.89a25.7 25.7 0 0 1 25.66-25.67h168.93a26.94 26.94 0 0 1 3.62.26 7.36 7.36 0 0 0 3.24.76h.21a25.71 25.71 0 0 1 18.59 24.67V504.5a7.5 7.5 0 0 0 15 0V389.89a40.71 40.71 0 0 0-24.12-37.14 35.26 35.26 0 0 0 .79-7.34v-13.29H457.5V504.5a7.5 7.5 0 0 0 15 0V332a43.2 43.2 0 0 0 39.5-43 7.5 7.5 0 0 0-7.5-7.53ZM53.83 317.12H43.15A28.2 28.2 0 0 1 16 296.47h43a77.9 77.9 0 0 0-5.17 20.65Zm59.41-175.51c0-7 4.76-13 10.4-13H197v45.51c0 17.37-11.93 31.5-26.6 31.5h-30.57c-14.66 0-26.59-14.13-26.59-31.5Zm.82 69a38.75 38.75 0 0 0 25.77 10h30.59a38.72 38.72 0 0 0 25.77-10 41.89 41.89 0 0 1-82.13 0Zm67.88 48.59c-4.37 4.92-13.06 12.56-25.41 13.4-14.44 1-25-8-29.81-13.22l2.94-6.21a56.76 56.76 0 0 0 49.81.56Zm60 86.23a19.81 19.81 0 0 1-.38 3.86H68.72a19.9 19.9 0 0 1-.39-3.86v-19.51c0-27.21 16.66-50.59 39.62-55.59l7.06-1.54c6.11 6.83 19.67 18.87 39.25 18.87 1.07 0 2.17 0 3.29-.12 18.11-1.23 30.39-12.4 36.19-19.07l8.57 1.86c22.95 5 39.61 28.38 39.61 55.59Zm81.5-317.48C323.42 22.11 328.76 15 335 15h68.73v30.54c0 5.72-5.19 10.38-11.57 10.38h-66.24a17.21 17.21 0 0 0-2.5.2Zm0 87.34V73.42a2.5 2.5 0 0 1 2.5-2.5h75.3a2.5 2.5 0 0 1 2.5 2.5v41.85a36.69 36.69 0 0 1-36.65 36.65h-7a36.69 36.69 0 0 1-36.67-36.65Zm55.09 50.36v7.55A14.57 14.57 0 0 1 364 187.74h-.76a14.58 14.58 0 0 1-14.56-14.56v-7.55a52 52 0 0 0 11.44 1.29h7a52 52 0 0 0 11.39-1.29ZM253.1 273.28l4.9-53.68c.05-.49.11-1 .17-1.45 1.94-14.14 12.87-26 27.19-29.54l48.46-11.93a29.59 29.59 0 0 0 29.34 26.06h.84a29.59 29.59 0 0 0 29.34-26.06l48.46 11.93c14.32 3.53 25.25 15.4 27.19 29.54.06.48.12 1 .17 1.45v.21l6.7 53.19a7.51 7.51 0 0 1-7.44 8.44H416.3v-21.05h23.22c.25 0 .5 0 .74-.05h.25l.66-.12h.25l.45-.14.28-.1.39-.17.3-.15.32-.17.33-.2a2.48 2.48 0 0 0 .26-.19l.33-.24.23-.2.31-.28a2.39 2.39 0 0 0 .22-.23l.27-.29.22-.27.21-.29c.07-.1.15-.21.22-.33l.16-.26.19-.38a2.24 2.24 0 0 0 .13-.27c.06-.12.11-.25.16-.38s.08-.2.11-.3.08-.25.11-.37l.09-.35c0-.11.05-.23.07-.34l.06-.41V252.05c0-.12 0-.23-.05-.34l-.09-.45v-.14l-6-23a7.5 7.5 0 1 0-14.51 3.78l3.53 13.57H349a7.3 7.3 0 0 0-.94.07c-.57 0-1.14-.07-1.72-.07h-45.87l4.63-15.11a7.5 7.5 0 0 0-14.34-4.4l-6 19.62a7.5 7.5 0 0 0 1.24 14.81h23.1v21.08h-48.53a7.51 7.51 0 0 1-7.47-8.19Zm116.52-12.89h31.68v21.08h-31.68a25.5 25.5 0 0 0 0-21.08Zm-12.72 10.54a10.55 10.55 0 0 1-10.54 10.54h-22.28v-21.08h22.28a10.55 10.55 0 0 1 10.54 10.54Zm112 46.19H256.43a78.3 78.3 0 0 0-5.17-20.65H496a28.2 28.2 0 0 1-27.15 20.65Z"></path>
</svg>
